<mxfile host="app.diagrams.net" agent="Mozilla/5.0 (Windows NT 10.0; Win64; x64) AppleWebKit/537.36 (KHTML, like Gecko) Chrome/129.0.0.0 Safari/537.36" version="24.8.1">
  <diagram name="Page-1" id="7DEqTBIz94n6Rveza3Td">
    <mxGraphModel dx="1498" dy="1097" grid="1" gridSize="10" guides="1" tooltips="1" connect="1" arrows="1" fold="1" page="1" pageScale="1" pageWidth="850" pageHeight="1100" math="0" shadow="0">
      <root>
        <mxCell id="0" />
        <mxCell id="1" parent="0" />
        <mxCell id="oLaJz7xng8UXdoUwY1kT-1" value="" style="strokeWidth=1;shadow=0;dashed=0;align=center;html=1;shape=mxgraph.mockup.containers.browserWindow;rSize=0;strokeColor=#666666;strokeColor2=#008cff;strokeColor3=#c4c4c4;mainText=,;recursiveResize=0;" parent="1" vertex="1">
          <mxGeometry x="40" y="120" width="767.5" height="950" as="geometry" />
        </mxCell>
        <mxCell id="oLaJz7xng8UXdoUwY1kT-2" value="DineScout" style="strokeWidth=1;shadow=0;dashed=0;align=center;html=1;shape=mxgraph.mockup.containers.anchor;fontSize=17;fontColor=#666666;align=left;whiteSpace=wrap;" parent="oLaJz7xng8UXdoUwY1kT-1" vertex="1">
          <mxGeometry x="60" y="12" width="110" height="26" as="geometry" />
        </mxCell>
        <mxCell id="oLaJz7xng8UXdoUwY1kT-3" value="https://www.dinescout.com/user_account" style="strokeWidth=1;shadow=0;dashed=0;align=center;html=1;shape=mxgraph.mockup.containers.anchor;rSize=0;fontSize=17;fontColor=#666666;align=left;" parent="oLaJz7xng8UXdoUwY1kT-1" vertex="1">
          <mxGeometry x="130" y="60" width="250" height="26" as="geometry" />
        </mxCell>
        <mxCell id="oLaJz7xng8UXdoUwY1kT-4" value="" style="strokeWidth=1;shadow=0;dashed=0;align=center;html=1;shape=mxgraph.mockup.forms.rrect;rSize=0;strokeColor=#999999;fillColor=#ffffff;" parent="oLaJz7xng8UXdoUwY1kT-1" vertex="1">
          <mxGeometry x="180" y="110" width="420" height="840" as="geometry" />
        </mxCell>
        <mxCell id="oLaJz7xng8UXdoUwY1kT-5" value="" style="rounded=0;whiteSpace=wrap;html=1;" parent="oLaJz7xng8UXdoUwY1kT-4" vertex="1">
          <mxGeometry x="50" y="220" width="320" height="240" as="geometry" />
        </mxCell>
        <mxCell id="oLaJz7xng8UXdoUwY1kT-6" value="" style="ellipse;whiteSpace=wrap;html=1;aspect=fixed;" parent="oLaJz7xng8UXdoUwY1kT-4" vertex="1">
          <mxGeometry x="163.98000000000002" y="74.30303030303031" width="80" height="80" as="geometry" />
        </mxCell>
        <mxCell id="oLaJz7xng8UXdoUwY1kT-7" value="Logo" style="text;strokeColor=none;fillColor=none;html=1;fontSize=24;fontStyle=1;verticalAlign=middle;align=center;" parent="oLaJz7xng8UXdoUwY1kT-4" vertex="1">
          <mxGeometry x="100" y="91.61" width="210" height="45.39" as="geometry" />
        </mxCell>
        <mxCell id="oLaJz7xng8UXdoUwY1kT-8" value="" style="strokeWidth=1;shadow=0;dashed=0;align=center;html=1;shape=mxgraph.mockup.forms.anchor;fontSize=12;fontColor=#666666;align=left;resizeWidth=1;spacingLeft=0;" parent="oLaJz7xng8UXdoUwY1kT-4" vertex="1">
          <mxGeometry x="164.5" y="581" width="115" height="20" as="geometry" />
        </mxCell>
        <mxCell id="oLaJz7xng8UXdoUwY1kT-9" value="" style="strokeWidth=1;shadow=0;dashed=0;align=center;html=1;shape=mxgraph.mockup.forms.anchor;fontSize=12;fontColor=#666666;align=left;resizeWidth=1;spacingLeft=0;" parent="oLaJz7xng8UXdoUwY1kT-4" vertex="1">
          <mxGeometry x="159" y="472" width="210" height="130" as="geometry" />
        </mxCell>
        <mxCell id="oLaJz7xng8UXdoUwY1kT-10" value="" style="rounded=0;whiteSpace=wrap;html=1;" parent="oLaJz7xng8UXdoUwY1kT-4" vertex="1">
          <mxGeometry x="50" y="619" width="320" height="91" as="geometry" />
        </mxCell>
        <mxCell id="oLaJz7xng8UXdoUwY1kT-11" value="&lt;div&gt;Name:&amp;nbsp;&lt;span style=&quot;background-color: initial;&quot;&gt;Bob&lt;/span&gt;&lt;/div&gt;&lt;div&gt;&lt;br&gt;&lt;/div&gt;&lt;div&gt;Type:&amp;nbsp;&lt;span style=&quot;background-color: initial;&quot;&gt;User&lt;/span&gt;&lt;/div&gt;&lt;div&gt;&lt;br&gt;&lt;/div&gt;&lt;div&gt;Status:&amp;nbsp;&lt;span style=&quot;background-color: initial;&quot;&gt;Active&lt;/span&gt;&lt;/div&gt;" style="strokeWidth=1;shadow=0;dashed=0;align=center;html=1;shape=mxgraph.mockup.forms.anchor;fontSize=12;fontColor=#666666;align=left;resizeWidth=1;spacingLeft=0;" parent="oLaJz7xng8UXdoUwY1kT-4" vertex="1">
          <mxGeometry x="61.5" y="601" width="210" height="130" as="geometry" />
        </mxCell>
        <mxCell id="oLaJz7xng8UXdoUwY1kT-12" value="Food Rev&lt;span style=&quot;color: rgba(0, 0, 0, 0); font-family: monospace; font-size: 0px; font-weight: 400; text-align: start;&quot;&gt;%3CmxGraphModel%3E%3Croot%3E%3CmxCell%20id%3D%220%22%2F%3E%3CmxCell%20id%3D%221%22%20parent%3D%220%22%2F%3E%3CmxCell%20id%3D%222%22%20value%3D%22%26lt%3Bdiv%26gt%3BName%3A%20Bob%26lt%3B%2Fdiv%26gt%3B%26lt%3Bdiv%26gt%3B%26lt%3Bbr%26gt%3B%26lt%3B%2Fdiv%26gt%3B%26lt%3Bdiv%26gt%3BAccount%20Type%3A%20Standard%20User%26lt%3B%2Fdiv%26gt%3B%22%20style%3D%22strokeWidth%3D1%3Bshadow%3D0%3Bdashed%3D0%3Balign%3Dcenter%3Bhtml%3D1%3Bshape%3Dmxgraph.mockup.forms.anchor%3BfontSize%3D12%3BfontColor%3D%23666666%3Balign%3Dleft%3BresizeWidth%3D1%3BspacingLeft%3D0%3B%22%20vertex%3D%221%22%20parent%3D%221%22%3E%3CmxGeometry%20x%3D%22289.5%22%20y%3D%22859%22%20width%3D%22210%22%20height%3D%22130%22%20as%3D%22geometry%22%2F%3E%3C%2FmxCell%3E%3C%2Froot%3E%3C%2FmxGraphModel%3E&lt;/span&gt;" style="strokeWidth=1;shadow=0;dashed=0;align=center;html=1;shape=mxgraph.mockup.forms.rrect;rSize=5;strokeColor=none;fontColor=#ffffff;fillColor=#66bbff;fontSize=16;fontStyle=1;" parent="oLaJz7xng8UXdoUwY1kT-4" vertex="1">
          <mxGeometry x="270" y="629" width="90" height="30" as="geometry" />
        </mxCell>
        <mxCell id="oLaJz7xng8UXdoUwY1kT-13" value="" style="rounded=0;whiteSpace=wrap;html=1;" parent="oLaJz7xng8UXdoUwY1kT-4" vertex="1">
          <mxGeometry x="50" y="730" width="320" height="90" as="geometry" />
        </mxCell>
        <mxCell id="oLaJz7xng8UXdoUwY1kT-16" value="" style="rounded=0;whiteSpace=wrap;html=1;" parent="oLaJz7xng8UXdoUwY1kT-4" vertex="1">
          <mxGeometry x="73" y="417" width="270" height="20" as="geometry" />
        </mxCell>
        <mxCell id="oLaJz7xng8UXdoUwY1kT-18" value="User Account" style="strokeWidth=1;shadow=0;dashed=0;align=center;html=1;shape=mxgraph.mockup.forms.rrect;rSize=5;strokeColor=none;fontColor=#ffffff;fillColor=#66bbff;fontSize=16;fontStyle=1;" parent="oLaJz7xng8UXdoUwY1kT-4" vertex="1">
          <mxGeometry x="290" y="10" width="120" height="30" as="geometry" />
        </mxCell>
        <mxCell id="cvc0-3SUm_vpO4LffsL5-1" value="&lt;span style=&quot;font-size: 16px;&quot;&gt;Users List&lt;/span&gt;" style="strokeWidth=1;shadow=0;dashed=0;align=center;html=1;shape=mxgraph.mockup.forms.anchor;fontSize=12;fontColor=#666666;align=left;resizeWidth=1;spacingLeft=0;" vertex="1" parent="oLaJz7xng8UXdoUwY1kT-4">
          <mxGeometry x="150" y="531" width="210" height="130" as="geometry" />
        </mxCell>
        <mxCell id="cvc0-3SUm_vpO4LffsL5-7" value="Following" style="strokeWidth=1;shadow=0;dashed=0;align=center;html=1;shape=mxgraph.mockup.forms.rrect;rSize=5;strokeColor=none;fontColor=#ffffff;fillColor=#66bbff;fontSize=16;fontStyle=1;" vertex="1" parent="oLaJz7xng8UXdoUwY1kT-4">
          <mxGeometry x="270" y="670" width="90" height="30" as="geometry" />
        </mxCell>
        <mxCell id="cvc0-3SUm_vpO4LffsL5-9" value="Update" style="strokeWidth=1;shadow=0;dashed=0;align=center;html=1;shape=mxgraph.mockup.forms.rrect;rSize=5;strokeColor=none;fontColor=#ffffff;fillColor=#66bbff;fontSize=16;fontStyle=1;" vertex="1" parent="oLaJz7xng8UXdoUwY1kT-4">
          <mxGeometry x="173" y="629" width="90" height="30" as="geometry" />
        </mxCell>
        <mxCell id="cvc0-3SUm_vpO4LffsL5-11" value="Update" style="strokeWidth=1;shadow=0;dashed=0;align=center;html=1;shape=mxgraph.mockup.forms.rrect;rSize=5;strokeColor=none;fontColor=#ffffff;fillColor=#66bbff;fontSize=16;fontStyle=1;" vertex="1" parent="oLaJz7xng8UXdoUwY1kT-4">
          <mxGeometry x="269" y="739.5" width="90" height="30" as="geometry" />
        </mxCell>
        <mxCell id="cvc0-3SUm_vpO4LffsL5-13" value="Food" style="strokeWidth=1;shadow=0;dashed=0;align=center;html=1;shape=mxgraph.mockup.forms.rrect;rSize=5;strokeColor=none;fontColor=#ffffff;fillColor=#66bbff;fontSize=16;fontStyle=1;" vertex="1" parent="oLaJz7xng8UXdoUwY1kT-4">
          <mxGeometry x="271" y="780.5" width="90" height="30" as="geometry" />
        </mxCell>
        <mxCell id="cvc0-3SUm_vpO4LffsL5-15" value="&lt;div&gt;Name: McDonalds&lt;/div&gt;&lt;div&gt;&lt;br&gt;&lt;/div&gt;&lt;div&gt;Type: Restaurant&lt;/div&gt;&lt;div&gt;&lt;br&gt;&lt;/div&gt;&lt;div&gt;Status: Membership Expired&lt;/div&gt;" style="strokeWidth=1;shadow=0;dashed=0;align=center;html=1;shape=mxgraph.mockup.forms.anchor;fontSize=12;fontColor=#666666;align=left;resizeWidth=1;spacingLeft=0;" vertex="1" parent="oLaJz7xng8UXdoUwY1kT-4">
          <mxGeometry x="59" y="711" width="210" height="130" as="geometry" />
        </mxCell>
        <mxCell id="oLaJz7xng8UXdoUwY1kT-19" value="" style="rounded=0;whiteSpace=wrap;html=1;" parent="1" vertex="1">
          <mxGeometry x="293" y="532" width="270" height="20" as="geometry" />
        </mxCell>
        <mxCell id="oLaJz7xng8UXdoUwY1kT-20" value="User-Update" style="strokeWidth=1;shadow=0;dashed=0;align=center;html=1;shape=mxgraph.mockup.forms.rrect;rSize=5;strokeColor=none;fontColor=#ffffff;fillColor=#66bbff;fontSize=16;fontStyle=1;" parent="1" vertex="1">
          <mxGeometry x="457.18" y="458.3" width="126.82" height="30" as="geometry" />
        </mxCell>
        <mxCell id="oLaJz7xng8UXdoUwY1kT-21" value="&lt;span style=&quot;font-size: 16px;&quot;&gt;User Account&lt;/span&gt;" style="strokeWidth=1;shadow=0;dashed=0;align=center;html=1;shape=mxgraph.mockup.forms.anchor;fontSize=12;fontColor=#666666;align=left;resizeWidth=1;spacingLeft=0;" parent="1" vertex="1">
          <mxGeometry x="375" y="357" width="210" height="130" as="geometry" />
        </mxCell>
        <mxCell id="oLaJz7xng8UXdoUwY1kT-22" value="" style="rounded=0;whiteSpace=wrap;html=1;" parent="1" vertex="1">
          <mxGeometry x="293" y="590" width="270" height="20" as="geometry" />
        </mxCell>
        <mxCell id="oLaJz7xng8UXdoUwY1kT-23" value="User Name&lt;div&gt;&lt;br&gt;&lt;/div&gt;&lt;div&gt;Username here&lt;div&gt;&lt;br&gt;&lt;/div&gt;&lt;div&gt;Email (login username)&lt;/div&gt;&lt;div&gt;&lt;br&gt;&lt;/div&gt;&lt;div&gt;Email here&lt;/div&gt;&lt;div&gt;&lt;br&gt;&lt;/div&gt;&lt;div&gt;Password&lt;/div&gt;&lt;/div&gt;&lt;div&gt;&lt;br&gt;&lt;/div&gt;&lt;div&gt;New password here&lt;/div&gt;" style="strokeWidth=1;shadow=0;dashed=0;align=center;html=1;shape=mxgraph.mockup.forms.anchor;fontSize=12;fontColor=#666666;align=left;resizeWidth=1;spacingLeft=0;" parent="1" vertex="1">
          <mxGeometry x="293" y="521" width="210" height="130" as="geometry" />
        </mxCell>
        <mxCell id="oLaJz7xng8UXdoUwY1kT-24" value="Admin User [User Account Page]" style="text;strokeColor=none;fillColor=none;html=1;fontSize=24;fontStyle=1;verticalAlign=middle;align=center;" parent="1" vertex="1">
          <mxGeometry x="375" y="40" width="100" height="60" as="geometry" />
        </mxCell>
        <mxCell id="cvc0-3SUm_vpO4LffsL5-2" value="" style="rounded=0;whiteSpace=wrap;html=1;" vertex="1" parent="1">
          <mxGeometry x="268" y="730" width="320" height="73" as="geometry" />
        </mxCell>
        <mxCell id="cvc0-3SUm_vpO4LffsL5-4" value="New User" style="strokeWidth=1;shadow=0;dashed=0;align=center;html=1;shape=mxgraph.mockup.forms.rrect;rSize=5;strokeColor=none;fontColor=#ffffff;fillColor=#66bbff;fontSize=16;fontStyle=1;" vertex="1" parent="1">
          <mxGeometry x="488" y="751" width="90" height="30" as="geometry" />
        </mxCell>
        <mxCell id="cvc0-3SUm_vpO4LffsL5-5" value="&lt;span style=&quot;font-size: 16px;&quot;&gt;User Creation&lt;/span&gt;" style="strokeWidth=1;shadow=0;dashed=0;align=center;html=1;shape=mxgraph.mockup.forms.anchor;fontSize=12;fontColor=#666666;align=left;resizeWidth=1;spacingLeft=0;" vertex="1" parent="1">
          <mxGeometry x="370" y="648" width="210" height="130" as="geometry" />
        </mxCell>
        <mxCell id="cvc0-3SUm_vpO4LffsL5-6" value="Create Users For Dine Scout" style="strokeWidth=1;shadow=0;dashed=0;align=center;html=1;shape=mxgraph.mockup.forms.anchor;fontSize=12;fontColor=#666666;align=left;resizeWidth=1;spacingLeft=0;" vertex="1" parent="1">
          <mxGeometry x="287" y="701.5" width="210" height="130" as="geometry" />
        </mxCell>
      </root>
    </mxGraphModel>
  </diagram>
</mxfile>
